<svg xmlns="http://www.w3.org/2000/svg" xmlns:xlink="http://www.w3.org/1999/xlink" version="1.1" width="256" height="256" viewBox="0 0 256 256" xml:space="preserve">
<g style="stroke: none; stroke-width: 0; stroke-dasharray: none; stroke-linecap: butt; stroke-linejoin: miter; stroke-miterlimit: 10; fill: none; fill-rule: nonzero; opacity: 1;" transform="translate(1.4065934065934016 1.4065934065934016) scale(2.81 2.81)">
	<path d="M 67.904 61.61 c -3.459 0 -6.273 2.819 -6.273 6.284 v 12.755 c 0 0.553 0.447 1 1 1 s 1 -0.447 1 -1 v -7.231 h 8.547 v 7.231 c 0 0.553 0.447 1 1 1 s 1 -0.447 1 -1 V 67.895 C 74.178 64.43 71.363 61.61 67.904 61.61 z M 63.631 71.418 v -3.523 c 0 -2.362 1.917 -4.284 4.273 -4.284 s 4.273 1.922 4.273 4.284 v 3.523 H 63.631 z" style="stroke: none; stroke-width: 1; stroke-dasharray: none; stroke-linecap: butt; stroke-linejoin: miter; stroke-miterlimit: 10; fill: rgb(0,0,0); fill-rule: nonzero; opacity: 1;" transform=" matrix(1 0 0 1 0 0) " stroke-linecap="round"/>
	<path d="M 80.694 61.61 c -0.553 0 -1 0.447 -1 1 v 18.039 c 0 0.553 0.447 1 1 1 s 1 -0.447 1 -1 V 62.61 C 81.694 62.058 81.247 61.61 80.694 61.61 z" style="stroke: none; stroke-width: 1; stroke-dasharray: none; stroke-linecap: butt; stroke-linejoin: miter; stroke-miterlimit: 10; fill: rgb(0,0,0); fill-rule: nonzero; opacity: 1;" transform=" matrix(1 0 0 1 0 0) " stroke-linecap="round"/>
	<path d="M 81.732 53.26 h -20.14 c -4.559 0 -8.268 3.709 -8.268 8.268 v 20.205 c 0 4.559 3.709 8.268 8.268 8.268 h 20.14 C 86.291 90 90 86.291 90 81.732 V 61.527 C 90 56.969 86.291 53.26 81.732 53.26 z M 88 81.732 C 88 85.188 85.188 88 81.732 88 h -20.14 c -3.456 0 -6.268 -2.812 -6.268 -6.268 V 61.527 c 0 -3.456 2.812 -6.268 6.268 -6.268 h 20.14 c 3.456 0 6.268 2.812 6.268 6.268 V 81.732 z" style="stroke: none; stroke-width: 1; stroke-dasharray: none; stroke-linecap: butt; stroke-linejoin: miter; stroke-miterlimit: 10; fill: rgb(0,0,0); fill-rule: nonzero; opacity: 1;" transform=" matrix(1 0 0 1 0 0) " stroke-linecap="round"/>
	<path d="M 40.188 0 H 11.392 C 5.11 0 0 5.11 0 11.392 v 28.89 c 0 6.281 5.11 11.392 11.392 11.392 h 28.796 c 6.281 0 11.392 -5.11 11.392 -11.392 v -28.89 C 51.579 5.11 46.469 0 40.188 0 z M 49.579 40.281 c 0 5.179 -4.213 9.392 -9.392 9.392 H 11.392 C 6.213 49.673 2 45.46 2 40.281 v -28.89 C 2 6.213 6.213 2 11.392 2 h 28.796 c 5.179 0 9.392 4.213 9.392 9.392 V 40.281 z" style="stroke: none; stroke-width: 1; stroke-dasharray: none; stroke-linecap: butt; stroke-linejoin: miter; stroke-miterlimit: 10; fill: rgb(0,0,0); fill-rule: nonzero; opacity: 1;" transform=" matrix(1 0 0 1 0 0) " stroke-linecap="round"/>
	<path d="M 13.633 62.483 c 0.552 0 1 -0.447 1 -1 v -2.872 c 0 -0.553 -0.448 -1 -1 -1 s -1 0.447 -1 1 v 2.872 C 12.633 62.036 13.081 62.483 13.633 62.483 z" style="stroke: none; stroke-width: 1; stroke-dasharray: none; stroke-linecap: butt; stroke-linejoin: miter; stroke-miterlimit: 10; fill: rgb(0,0,0); fill-rule: nonzero; opacity: 1;" transform=" matrix(1 0 0 1 0 0) " stroke-linecap="round"/>
	<path d="M 45.235 70.63 H 27.872 c -0.597 0 -1.083 -0.487 -1.083 -1.086 V 58.611 c 0 -0.553 -0.448 -1 -1 -1 s -1 0.447 -1 1 v 10.933 c 0 1.701 1.383 3.086 3.083 3.086 h 17.363 c 0.552 0 1 -0.447 1 -1 S 45.788 70.63 45.235 70.63 z" style="stroke: none; stroke-width: 1; stroke-dasharray: none; stroke-linecap: butt; stroke-linejoin: miter; stroke-miterlimit: 10; fill: rgb(0,0,0); fill-rule: nonzero; opacity: 1;" transform=" matrix(1 0 0 1 0 0) " stroke-linecap="round"/>
	<path d="M 45.235 88 H 26.79 v -5.933 c 0 -1.702 -1.383 -3.087 -3.082 -3.087 h -7.992 c -0.597 0 -1.083 -0.487 -1.083 -1.086 v -8.646 c 0 -0.553 -0.448 -1 -1 -1 s -1 0.447 -1 1 v 8.646 c 0 1.701 1.383 3.086 3.083 3.086 h 7.992 c 0.597 0 1.082 0.487 1.082 1.087 V 88 H 3.083 C 2.486 88 2 87.513 2 86.914 V 58.611 c 0 -0.553 -0.448 -1 -1 -1 s -1 0.447 -1 1 v 28.303 C 0 88.615 1.383 90 3.083 90 h 42.153 c 0.552 0 1 -0.447 1 -1 S 45.788 88 45.235 88 z" style="stroke: none; stroke-width: 1; stroke-dasharray: none; stroke-linecap: butt; stroke-linejoin: miter; stroke-miterlimit: 10; fill: rgb(0,0,0); fill-rule: nonzero; opacity: 1;" transform=" matrix(1 0 0 1 0 0) " stroke-linecap="round"/>
	<path d="M 58.668 14.657 h 2.867 c 0.553 0 1 -0.448 1 -1 s -0.447 -1 -1 -1 h -2.867 c -0.553 0 -1 0.448 -1 1 S 58.115 14.657 58.668 14.657 z" style="stroke: none; stroke-width: 1; stroke-dasharray: none; stroke-linecap: butt; stroke-linejoin: miter; stroke-miterlimit: 10; fill: rgb(0,0,0); fill-rule: nonzero; opacity: 1;" transform=" matrix(1 0 0 1 0 0) " stroke-linecap="round"/>
	<path d="M 58.668 26.836 H 69.58 c 0.597 0 1.082 0.487 1.082 1.086 v 7.655 c 0 0.552 0.447 1 1 1 s 1 -0.448 1 -1 v -7.655 c 0 -1.702 -1.383 -3.086 -3.082 -3.086 H 58.668 c -0.553 0 -1 0.448 -1 1 S 58.115 26.836 58.668 26.836 z" style="stroke: none; stroke-width: 1; stroke-dasharray: none; stroke-linecap: butt; stroke-linejoin: miter; stroke-miterlimit: 10; fill: rgb(0,0,0); fill-rule: nonzero; opacity: 1;" transform=" matrix(1 0 0 1 0 0) " stroke-linecap="round"/>
	<path d="M 71.662 41.88 c -0.553 0 -1 0.448 -1 1 v 2.438 c 0 0.552 0.447 1 1 1 s 1 -0.448 1 -1 V 42.88 C 72.662 42.328 72.215 41.88 71.662 41.88 z" style="stroke: none; stroke-width: 1; stroke-dasharray: none; stroke-linecap: butt; stroke-linejoin: miter; stroke-miterlimit: 10; fill: rgb(0,0,0); fill-rule: nonzero; opacity: 1;" transform=" matrix(1 0 0 1 0 0) " stroke-linecap="round"/>
	<path d="M 86.918 0 h -28.25 c -0.553 0 -1 0.448 -1 1 s 0.447 1 1 1 h 28.25 C 87.515 2 88 2.487 88 3.086 v 21.75 h -5.92 c -0.597 0 -1.082 -0.487 -1.082 -1.086 v -8.006 c 0 -1.702 -1.383 -3.086 -3.083 -3.086 h -8.628 c -0.553 0 -1 0.448 -1 1 s 0.447 1 1 1 h 8.628 c 0.598 0 1.083 0.487 1.083 1.086 v 8.006 c 0 1.702 1.383 3.086 3.082 3.086 H 88 v 18.482 c 0 0.552 0.447 1 1 1 s 1 -0.448 1 -1 V 3.086 C 90 1.385 88.617 0 86.918 0 z" style="stroke: none; stroke-width: 1; stroke-dasharray: none; stroke-linecap: butt; stroke-linejoin: miter; stroke-miterlimit: 10; fill: rgb(0,0,0); fill-rule: nonzero; opacity: 1;" transform=" matrix(1 0 0 1 0 0) " stroke-linecap="round"/>
	<path d="M 38.795 10.225 H 12.784 c -1.853 0 -3.359 1.507 -3.359 3.359 v 4.417 c 0 0.552 0.448 1 1 1 s 1 -0.448 1 -1 v -4.417 c 0 -0.75 0.61 -1.359 1.359 -1.359 H 24.79 v 27.223 h -8.173 c -0.552 0 -1 0.448 -1 1 s 0.448 1 1 1 h 18.347 c 0.552 0 1 -0.448 1 -1 s -0.448 -1 -1 -1 H 26.79 V 12.225 h 12.006 c 0.75 0 1.359 0.609 1.359 1.359 v 4.417 c 0 0.552 0.448 1 1 1 s 1 -0.448 1 -1 v -4.417 C 42.154 11.732 40.647 10.225 38.795 10.225 z" style="stroke: none; stroke-width: 1; stroke-dasharray: none; stroke-linecap: butt; stroke-linejoin: miter; stroke-miterlimit: 10; fill: rgb(0,0,0); fill-rule: nonzero; opacity: 1;" transform=" matrix(1 0 0 1 0 0) " stroke-linecap="round"/>
</g>
</svg>